<?xml version="1.0" encoding="UTF-8"?>
<svg xmlns="http://www.w3.org/2000/svg" width="1024" height="1024" viewBox="0 0 1024 1024">
  <defs>
    <linearGradient id="baseg" x1="0" y1="0" x2="0" y2="1">
      <stop offset="0" stop-color="#605e59"/>
      <stop offset="1" stop-color="#3b3a36"/>
    </linearGradient>
  </defs>
  <rect x="0" y="0" width="1024" height="1024" rx="230" fill="#f0dbb9"/>
  <g transform="translate(71.0, 16.0) scale(19.6)">
<defs>
  <linearGradient id="body" x1="0" y1="0" x2="0" y2="1">
    <stop offset="0" stop-color="#605e59"/>
    <stop offset="1" stop-color="#3b3a36"/>
  </linearGradient>
</defs>
<g style="fill:none;fill-rule:evenodd;stroke:#26251f;stroke-width:1.5;stroke-linecap:round;stroke-linejoin:round" transform="translate(0,0.3)">
  <path d="M 22,10 C 32.5,11 38.5,18 38,39 L 15,39 C 15,30 25,32.5 23,18" style="fill:url(#body);" />
  <path d="M 24,18 C 24.38,20.91 18.45,25.37 16,27 C 13,29 13.18,31.34 11,31 C 9.958,30.06 12.41,27.96 11,28 C 10,28 11.19,29.23 10,30 C 9,30 5.997,31 6,26 C 6,24 12,14 12,14 C 12,14 13.89,12.1 14,10.5 C 13.27,9.506 13.5,8.5 13.5,7.5 C 14.5,6.5 16.5,10 16.5,10 L 18.5,10 C 18.5,10 19.28,8.008 21,7 C 22,7 22,10 22,10" style="fill:url(#body);" />
  <path d="M 9.5 25.5 A 0.5 0.5 0 1 1 8.5,25.5 A 0.5 0.5 0 1 1 9.5 25.5 z" style="fill:#8e8c86;stroke:#8e8c86;" />
  <path d="M 15 15.5 A 0.5 1.5 0 1 1  14,15.5 A 0.5 1.5 0 1 1  15 15.5 z" transform="matrix(0.866,0.5,-0.5,0.866,9.693,-5.173)" style="fill:#8e8c86;stroke:#8e8c86;" />
  <path d="M 24.55,10.4 L 24.1,11.85 L 24.6,12 C 27.75,13 30.25,14.49 32.5,18.75 C 34.75,23.01 35.75,29.06 35.25,39 L 35.2,39.5 L 37.45,39.5 L 37.5,39 C 38,28.94 36.62,22.15 34.25,17.66 C 31.88,13.17 28.46,11.02 25.06,10.5 L 24.55,10.4 z" style="fill:#8e8c86;stroke:none;" />
</g></g>
  <g stroke="#26251f" stroke-width="8" stroke-linejoin="round">
    <rect x="372.00000000000006" y="776.4000000000001" width="436.80000000000007" height="44.800000000000004" rx="12" fill="url(#baseg)"/>
    <rect x="327.20000000000005" y="821.2" width="526.4000000000001" height="64.96000000000001" rx="16" fill="url(#baseg)"/>
  </g>
  <rect x="398.00000000000006" y="784.4000000000001" width="384.80000000000007" height="7" rx="3.5" fill="#8e8c86" opacity="0.85"/>
  <rect x="357.20000000000005" y="830.2" width="466.4000000000001" height="7" rx="3.5" fill="#8e8c86" opacity="0.85"/>
</svg>