<?xml version="1.0" encoding="UTF-8"?>
<svg xmlns="http://www.w3.org/2000/svg" width="1024" height="1024" viewBox="0 0 1024 1024">
  <rect x="0" y="0" width="1024" height="1024" rx="230" fill="#ffffff"/>
  <g transform="translate(88.8, 92.2) scale(0.7451)">
<path fill="#000000" d="
M 258 1055
L 800 1055
C 822 1055 838 1039 838 1017
L 838 940
C 838 915 826 895 800 882
L 772 870
C 772 810 780 760 786 720
C 794 660 786 600 760 560
C 792 545 850 520 890 480
C 916 455 926 425 918 400
C 908 370 860 300 780 235
C 762 220 745 210 728 202
C 738 175 736 140 724 110
C 720 100 708 98 700 106
L 640 168
C 628 165 616 163 604 163
L 560 84
C 554 73 540 74 536 86
C 524 120 516 160 516 196
C 460 230 400 290 355 370
C 300 468 275 590 268 700
C 263 770 268 820 280 870
C 250 885 240 908 240 940
L 240 1017
C 240 1039 256 1055 258 1055
Z"/></g>
</svg>