<?xml version="1.0" encoding="UTF-8"?>
<svg xmlns="http://www.w3.org/2000/svg" width="1024" height="1024" viewBox="0 0 1024 1024">
  <rect x="0" y="0" width="1024" height="1024" rx="230" fill="#ffffff"/>
  <g transform="translate(78.5, 87.9) scale(0.7632)">
<g fill="#000000">
<rect x="222" y="880" width="616" height="176" rx="38"/>
<path d="
M 285 900
C 268 800 266 715 282 618
C 300 478 348 358 424 278
C 452 246 478 222 506 205
C 522 152 545 100 570 70
C 583 92 594 128 598 160
C 607 152 617 146 627 143
C 646 118 668 102 690 93
C 700 118 706 148 707 174
C 727 185 747 205 762 228
C 812 277 872 342 906 400
C 921 424 924 448 914 468
C 903 494 878 530 851 556
C 790 538 700 512 612 477
C 645 545 692 602 722 662
C 758 730 774 800 767 900
Z"/>
</g></g>
</svg>