<?xml version="1.0" encoding="UTF-8"?>
<svg xmlns="http://www.w3.org/2000/svg" width="1024" height="1024" viewBox="0 0 1024 1024">
  <rect x="0" y="0" width="1024" height="1024" rx="230" fill="#ffffff"/>
  <g transform="translate(88.8, 92.2) scale(0.7451)">
<path fill="#000000" d="
M 262 1056
C 240 1056 222 1040 222 1018
L 222 952
C 222 922 236 900 262 888
C 268 886 272 880 271 874
C 258 796 262 700 282 606
C 305 500 350 400 420 320
C 448 288 478 262 508 244
C 510 200 520 150 538 106
C 543 94 558 93 564 104
L 610 190
C 618 188 628 187 638 188
L 692 128
C 700 119 714 121 718 132
C 730 165 732 200 724 230
C 742 240 760 253 778 270
C 850 336 900 410 916 448
C 926 472 918 500 894 522
C 856 556 800 580 762 592
C 786 636 792 696 782 760
C 776 800 770 844 772 874
C 772 880 776 886 782 888
C 808 900 822 922 822 952
L 822 1018
C 822 1040 804 1056 782 1056
Z"/></g>
</svg>